HIERARCHY
ROOT Hips
{
	OFFSET	0.00	0.00	0.00
	CHANNELS 6 Xposition Yposition Zposition Zrotation Xrotation Yrotation
	JOINT LeftUpLeg
	{
		OFFSET	 0.126116	-0.014019	-0.065224
		CHANNELS 3 Zrotation Xrotation Yrotation
		JOINT LeftLeg
		{
			OFFSET	 0.000000	 0.000000	 0.569914
			CHANNELS 3 Zrotation Xrotation Yrotation
			JOINT LeftFoot
			{
				OFFSET	 0.000000	 0.000000	 0.544423
				CHANNELS 3 Zrotation Xrotation Yrotation
				JOINT LeftToeBase
				{
					OFFSET	 0.000000	 0.000000	 0.207117
					CHANNELS 3 Zrotation Xrotation Yrotation
					End Site
					{
						OFFSET	 0.000000	 0.000000	 0.207117
					}
				}
			}
		}
	}
	JOINT RightUpLeg
	{
		OFFSET	-0.124023	-0.008373	-0.065224
		CHANNELS 3 Zrotation Xrotation Yrotation
		JOINT RightLeg
		{
			OFFSET	 0.000000	 0.000000	 0.570047
			CHANNELS 3 Zrotation Xrotation Yrotation
			JOINT RightFoot
			{
				OFFSET	 0.000000	 0.000000	 0.544354
				CHANNELS 3 Zrotation Xrotation Yrotation
				JOINT RightToeBase
				{
					OFFSET	 0.000000	 0.000000	 0.207540
					CHANNELS 3 Zrotation Xrotation Yrotation
					End Site
					{
						OFFSET	 0.000000	 0.000000	 0.207540
					}
				}
			}
		}
	}
	JOINT Spine
	{
		OFFSET	 0.000184	-0.007763	 0.117403
		CHANNELS 3 Zrotation Xrotation Yrotation
		JOINT Spine1
		{
			OFFSET	 0.000000	 0.000000	 0.137269
			CHANNELS 3 Zrotation Xrotation Yrotation
			JOINT Spine2
			{
				OFFSET	 0.000000	 0.000000	 0.156879
				CHANNELS 3 Zrotation Xrotation Yrotation
				JOINT LeftShoulder
				{
					OFFSET	 0.080501	-0.002496	 0.160144
					CHANNELS 3 Zrotation Xrotation Yrotation
					JOINT LeftArm
					{
						OFFSET	 0.000000	 0.000000	 0.164363
						CHANNELS 3 Zrotation Xrotation Yrotation
						JOINT LeftForeArm
						{
							OFFSET	 0.000000	 0.000000	 0.364576
							CHANNELS 3 Zrotation Xrotation Yrotation
							JOINT LeftHand
							{
								OFFSET	 0.000000	 0.000000	 0.360812
								CHANNELS 3 Zrotation Xrotation Yrotation
								JOINT LeftHandIndex1
								{
									OFFSET	 0.000000	 0.000000	 0.086006
									CHANNELS 3 Zrotation Xrotation Yrotation
									JOINT LeftHandIndex2
									{
										OFFSET	 0.000000	 0.000000	 0.047236
										CHANNELS 3 Zrotation Xrotation Yrotation
										JOINT LeftHandIndex3
										{
											OFFSET	-0.004284	-0.000551	 0.038166
											CHANNELS 3 Zrotation Xrotation Yrotation
											End Site
											{
												OFFSET	-0.004284	-0.000551	 0.038166
											}
										}
									}
								}
							}
						}
					}
				}
				JOINT Neck
				{
					OFFSET	 0.000000	 0.000000	 0.176489
					CHANNELS 3 Zrotation Xrotation Yrotation
					JOINT Head
					{
						OFFSET	 0.000000	-0.001747	 0.077940
						CHANNELS 3 Zrotation Xrotation Yrotation
						End Site
						{
							OFFSET	 0.000000	-0.001747	 0.077940
						}
					}
				}
				JOINT RightShoulder
				{
					OFFSET	-0.080363	 0.000306	 0.159706
					CHANNELS 3 Zrotation Xrotation Yrotation
					JOINT RightArm
					{
						OFFSET	 0.000000	 0.000000	 0.164196
						CHANNELS 3 Zrotation Xrotation Yrotation
						JOINT RightForeArm
						{
							OFFSET	 0.000000	 0.000000	 0.365611
							CHANNELS 3 Zrotation Xrotation Yrotation
							JOINT RightHand
							{
								OFFSET	 0.000000	 0.000000	 0.360648
								CHANNELS 3 Zrotation Xrotation Yrotation
								JOINT RightHandIndex1
								{
									OFFSET	 0.000000	 0.000000	 0.069977
									CHANNELS 3 Zrotation Xrotation Yrotation
									JOINT RightHandIndex2
									{
										OFFSET	 0.000000	 0.000000	 0.052305
										CHANNELS 3 Zrotation Xrotation Yrotation
										JOINT RightHandIndex3
										{
											OFFSET	 0.009002	-0.000782	 0.042196
											CHANNELS 3 Zrotation Xrotation Yrotation
											End Site
											{
												OFFSET	 0.009002	-0.000782	 0.042196
											}
										}
									}
								}
							}
						}
					}
				}
			}
		}
	}
}
MOTION
Frames:    4
Frame Time: 0.03333334
-0.026953	 0.257796	 1.046587	 3.463170	 32.314740	-8.691883	 53.941010	-72.733150	-134.677500	 5.179485	-66.527480	 5.135553	 67.077010	 72.685980	-77.965440	-2.385832	 28.452790	-0.000001	 29.138870	-81.724330	-145.464600	-15.437180	-71.538810	-9.771795	-29.485880	 76.846170	 54.568700	 2.384659	 28.388700	-0.000001	 22.931630	 14.208550	 0.369858	-1.107841	 15.872360	 0.278515	-6.734222	 2.311473	 5.021720	-99.177430	 68.203610	 156.742500	 0.036714	-11.256020	-47.967920	 3.243049	-1.066063	-5.824743	-29.730090	-29.490180	-20.638250	-2.027600	 6.559038	 9.033609	-5.188889	 0.308190	 3.541030	-5.234859	 0.342567	 0.430617	 0.421402	 17.941790	-6.176780	-5.634045	-26.986150	-3.381952	 97.482200	 64.631940	-159.283000	-11.865740	 5.653719	 60.152330	-17.159560	-5.320717	 28.498420	 13.000010	-28.731840	 15.728220	 1.803333	 3.979147	-15.098590	 4.898592	 3.004813	-9.310344	 5.224449	 0.395017	 2.014677
-0.025164	 0.256079	 1.055429	 3.295514	 31.712500	-8.364006	 50.844420	-71.588760	-137.997400	 4.692507	-65.217780	 4.640703	 66.084080	 72.604510	-76.633920	-2.385832	 28.452790	-0.000001	 21.162450	-80.525830	-153.084900	-14.883440	-70.185650	-9.170774	-28.740920	 76.695230	 53.632130	 2.384659	 28.388700	-0.000001	 20.970570	 13.938410	 0.280437	-0.984416	 15.601760	 0.200663	-6.726934	 2.014799	 4.829232	-99.068050	 68.190020	 157.098500	 0.414655	-10.080840	-48.122340	 4.964478	-1.402980	-6.524824	-29.580150	-30.888340	-20.661990	-2.027600	 6.559038	 9.033609	-5.188889	 0.308190	 3.541030	-5.234859	 0.342567	 0.430617	 0.105010	 16.216840	-5.359317	-5.820288	-25.254800	-3.665227	 97.393460	 64.576250	-159.574400	-12.570490	 5.857414	 58.877040	-17.971400	-6.486856	 31.166680	 12.718390	-30.108760	 16.142880	 1.803333	 3.979147	-15.098590	 4.898592	 3.004813	-9.310344	 5.224449	 0.395017	 2.014677
-0.023423	 0.253987	 1.064496	 3.224685	 31.090410	-8.073620	 47.889680	-70.367820	-141.095600	 4.365238	-63.829400	 4.293509	 64.662850	 72.491660	-74.958630	-2.385832	 28.452790	-0.000001	 14.670810	-79.155240	-159.119300	-14.399780	-68.792310	-8.636595	-27.871280	 76.529080	 52.538090	 2.384659	 28.388700	-0.000001	 18.880650	 13.641500	 0.202775	-0.857580	 15.458110	 0.089122	-6.745461	 1.623238	 4.618007	-98.824950	 68.425450	 157.494500	 0.787695	-8.708607	-48.482870	 6.689763	-1.770916	-7.190651	-29.525460	-32.364770	-20.834790	-2.027600	 6.559038	 9.033609	-5.188889	 0.308190	 3.541030	-5.234859	 0.342567	 0.430617	-0.175657	 14.029680	-4.782542	-5.901911	-23.076500	-3.710550	 97.267600	 64.376680	-160.094600	-13.337460	 5.793451	 57.839100	-18.709300	-7.751669	 33.813720	 12.190680	-31.311090	 16.539580	 1.803333	 3.979147	-15.098590	 4.898592	 3.004813	-9.310344	 5.224449	 0.395017	 2.014677
-0.021512	 0.251576	 1.074031	 3.171092	 30.472300	-7.771045	 45.172440	-69.052440	-143.949200	 4.070127	-62.338910	 3.975630	 63.144700	 72.355010	-73.164920	-2.385832	 28.452790	-0.000001	 9.480310	-77.614440	-163.833000	-13.942610	-67.287570	-8.123693	-26.875380	 76.334170	 51.322980	 2.384659	 28.388700	-0.000001	 16.663590	 13.308740	 0.111386	-0.726608	 15.240740	-0.011639	-6.773882	 1.257380	 4.400961	-98.567860	 68.689770	 157.899300	 1.177402	-7.274435	-48.831790	 8.382485	-2.166734	-7.831460	-29.487630	-33.868740	-21.012520	-2.027600	 6.559038	 9.033609	-5.188889	 0.308190	 3.541030	-5.234859	 0.342567	 0.430617	-0.433345	 11.774020	-4.241117	-5.964292	-20.835870	-3.723102	 97.133660	 64.160790	-160.640200	-14.157030	 5.710555	 56.762710	-19.312600	-9.104709	 36.532460	 11.663540	-32.494830	 16.918500	 1.803333	 3.979147	-15.098590	 4.898592	 3.004813	-9.310344	 5.224449	 0.395017	 2.014677
